<!-- Generated by IcoMoon.io -->
<svg version="1.1" xmlns="http://www.w3.org/2000/svg" width="32" height="32" viewBox="0 0 32 32">
<title>bitcoin</title>
<path d="M25.41 11.428q0.322 3.25-2.338 4.608 2.089 0.501 3.124 1.84t0.805 3.821q-0.126 1.268-0.581 2.233t-1.152 1.588-1.732 1.044-2.169 0.617-2.599 0.267v4.553h-2.75v-4.482q-1.428 0-2.178-0.018v4.5h-2.75v-4.553q-0.322 0-0.964-0.009t-0.983-0.009h-3.572l0.553-3.268h1.982q0.894 0 1.035-0.91v-7.179h0.286q-0.107-0.018-0.286-0.018v-5.124q-0.233-1.214-1.588-1.214h-1.982v-2.928l3.785 0.018q1.143 0 1.732-0.018v-4.5h2.75v4.411q1.465-0.037 2.178-0.037v-4.375h2.75v4.5q1.41 0.126 2.5 0.402t2.018 0.804 1.474 1.392 0.651 2.046zM21.572 21.16q0-0.642-0.267-1.143t-0.661-0.82-1.026-0.544-1.17-0.331-1.321-0.16-1.232-0.053-1.152 0.018-0.848 0.018v6.036q0.142 0 0.661 0.009t0.857 0.009 0.946-0.027 1.044-0.071 1.017-0.151 0.992-0.249 0.848-0.375 0.706-0.535 0.437-0.713 0.169-0.91zM20.304 12.66q0-0.59-0.224-1.044t-0.544-0.75-0.857-0.501-0.983-0.295-1.097-0.142-1.035-0.046-0.964 0.018-0.706 0.009v5.481q0.089 0 0.617 0.009t0.83 0 0.894-0.037 0.983-0.098 0.919-0.197 0.866-0.331 0.661-0.482 0.482-0.688 0.16-0.91z"></path>
</svg>
