<!-- Generated by IcoMoon.io -->
<svg version="1.1" xmlns="http://www.w3.org/2000/svg" width="32" height="32" viewBox="0 0 32 32">
<title>dianbao</title>
<path d="M29.019 3.805h-0.33l-25.873 13.184v0.165c0 0.165 0 0.165 0.165 0.165l8.569 2.802h0.33l12.030-10.712-9.558 11.206v0.165c0 0.165 0 0.33 0.165 0.33l9.558 2.966h0.165l0.165-0.165 4.779-19.775c0-0.165 0-0.33-0.165-0.33zM17.318 23.251l-2.637-0.824h-0.165l-0.165 0.165v4.944c0 0.165 0.165 0.33 0.33 0.33s0.165 0 0.165-0.165l2.637-4.12v-0.165l-0.165-0.165z"></path>
</svg>
