<!-- Generated by IcoMoon.io -->
<svg version="1.1" xmlns="http://www.w3.org/2000/svg" width="32" height="32" viewBox="0 0 32 32">
<title>github</title>
<path d="M26.736 6.777c1.113-2.067-0.159-4.771-0.159-4.771-2.862 0-4.93 1.908-4.93 1.908-1.113-0.636-4.771-0.636-4.771-0.636s-3.658 0-4.771 0.636c0 0-2.067-1.908-4.93-1.908 0 0-1.272 2.703-0.159 4.771 0 0-2.544 2.385-1.59 7.474 0.897 4.782 5.089 6.043 7.792 6.043 0 0-1.113 0.954-0.954 2.544 0 0-1.59 0.954-3.18 0.318s-2.385-2.226-2.385-2.226-1.59-2.067-3.18-1.272c0 0-0.477 0.477 1.272 1.272 0 0 1.272 1.908 1.749 3.021s3.021 2.067 5.566 1.431v3.657s0 0.318-0.636 0.477-0.636 0.477-0.318 0.477h11.45c0.318 0 0.318-0.318-0.318-0.477s-0.636-0.477-0.636-0.477v-3.657s0.014-1.907 0-2.544c-0.035-1.598-1.113-2.544-1.113-2.544 2.703 0 6.895-1.261 7.792-6.043 0.954-5.089-1.59-7.474-1.59-7.474z"></path>
</svg>
