<!-- Generated by IcoMoon.io -->
<svg version="1.1" xmlns="http://www.w3.org/2000/svg" width="32" height="32" viewBox="0 0 32 32">
<title>medium</title>
<path d="M30.123 8.348l-8.59 14.009-6.144-10.012 4.878-7.95c0.242-0.37 0.711-0.526 1.109-0.412l8.747 4.366M30.222 27.065c0 0.811-0.711 1.124-1.579 0.683l-6.699-3.342 8.277-13.511v16.171M11.733 27.292c0 0.796-0.612 1.166-1.323 0.796l-7.851-3.897c-0.427-0.228-0.782-0.796-0.782-1.28v-18.091c0-0.64 0.469-0.91 1.052-0.654l8.476 4.238 0.427 0.654v18.233M20.679 23.765l-7.524-3.769v-8.533l7.524 12.302z"></path>
</svg>
