<!-- Generated by IcoMoon.io -->
<svg version="1.1" xmlns="http://www.w3.org/2000/svg" width="32" height="32" viewBox="0 0 32 32">
<title>quanzheng</title>
<path d="M16.866 4.275l0.808-0.579c0.275-0.2 0.62-0.32 0.992-0.32 0.66 0 1.232 0.376 1.513 0.926l0.004 0.010 0.448 0.892c0.327 0.647 1.029 1.016 1.747 0.917l0.989-0.136c0.069-0.010 0.149-0.016 0.231-0.016 0.938 0 1.698 0.76 1.698 1.698 0 0.009-0 0.018-0 0.027l0-0.001-0.016 0.999c-0.014 0.723 0.434 1.376 1.114 1.625l0.939 0.339c0.667 0.239 1.135 0.866 1.135 1.602 0 0.296-0.076 0.574-0.209 0.816l0.004-0.009-0.484 0.876c-0.344 0.634-0.249 1.417 0.237 1.951l0.674 0.737c0.276 0.301 0.444 0.703 0.444 1.145 0 0.586-0.297 1.102-0.748 1.407l-0.006 0.004-0.836 0.559c-0.603 0.402-0.884 1.144-0.699 1.846l0.254 0.966c0.036 0.13 0.056 0.279 0.056 0.432 0 0.875-0.661 1.595-1.511 1.688l-0.008 0.001-0.994 0.11c-0.728 0.078-1.314 0.607-1.476 1.298l-0.002 0.012-0.221 0.972c-0.179 0.76-0.852 1.318-1.655 1.318-0.226 0-0.441-0.044-0.638-0.124l0.011 0.004-0.925-0.363c-0.186-0.076-0.402-0.121-0.629-0.121-0.515 0-0.976 0.229-1.287 0.59l-0.002 0.002-0.65 0.754c-0.313 0.364-0.775 0.593-1.289 0.593s-0.976-0.229-1.287-0.591l-0.002-0.002-0.649-0.758c-0.313-0.362-0.773-0.59-1.287-0.59-0.227 0-0.444 0.045-0.642 0.126l0.011-0.004-0.928 0.366c-0.186 0.076-0.402 0.12-0.628 0.12-0.804 0-1.478-0.559-1.653-1.31l-0.002-0.012-0.223-0.974c-0.165-0.703-0.75-1.231-1.47-1.309l-0.008-0.001-0.993-0.103c-0.858-0.094-1.519-0.814-1.519-1.689 0-0.154 0.020-0.303 0.059-0.444l-0.003 0.012 0.253-0.967c0.036-0.13 0.056-0.28 0.056-0.434 0-0.586-0.297-1.104-0.749-1.409l-0.006-0.004-0.836-0.555c-0.454-0.309-0.749-0.824-0.749-1.408 0-0.441 0.168-0.843 0.444-1.145l-0.001 0.001 0.669-0.739c0.486-0.535 0.581-1.318 0.237-1.952l-0.473-0.884c-0.13-0.235-0.207-0.515-0.207-0.812 0-0.731 0.462-1.355 1.11-1.594l0.012-0.004 0.937-0.341c0.68-0.248 1.128-0.9 1.116-1.625l-0.016-0.997c-0-0.008-0-0.016-0-0.025 0-0.938 0.76-1.698 1.698-1.698 0.081 0 0.161 0.006 0.24 0.017l-0.009-0.001 0.988 0.136c0.72 0.099 1.42-0.268 1.749-0.915l0.448-0.893c0.286-0.559 0.857-0.935 1.517-0.935 0.373 0 0.717 0.12 0.997 0.323l-0.005-0.003 0.811 0.579c0.59 0.425 1.387 0.425 1.979 0zM15.879 26.098c5.28 0 9.56-4.28 9.56-9.56s-4.28-9.56-9.56-9.56v0c-5.28 0-9.56 4.28-9.56 9.56s4.28 9.56 9.56 9.56v0zM15.879 24.858c-4.595 0-8.32-3.725-8.32-8.32s3.725-8.32 8.32-8.32v0c4.595 0 8.32 3.725 8.32 8.32s-3.725 8.32-8.32 8.32v0zM13.627 12.871c-0.12-0.293-0.402-0.495-0.732-0.495-0.436 0-0.789 0.353-0.789 0.789 0 0.106 0.021 0.207 0.059 0.3l-0.002-0.005 3.036 7.559c0.119 0.294 0.402 0.497 0.733 0.497 0.322 0 0.599-0.193 0.722-0.47l0.002-0.005 3.287-7.559c0.042-0.093 0.066-0.201 0.066-0.316 0-0.436-0.353-0.789-0.789-0.789-0.322 0-0.599 0.193-0.722 0.469l-0.002 0.005-2.536 5.833-2.332-5.811z"></path>
</svg>
