<!-- Generated by IcoMoon.io -->
<svg version="1.1" xmlns="http://www.w3.org/2000/svg" width="32" height="32" viewBox="0 0 32 32">
<title>set</title>
<path d="M29.531 12.659h0.203c-1.541-0.016-2.956-0.816-3.712-2.097-0.756-1.278-0.756-2.841 0-4.119-1.681-1.597-3.766-2.75-6.053-3.35-0.803 1.256-2.231 2.022-3.772 2.022s-2.972-0.766-3.772-2.022c-2.281 0.609-4.366 1.762-6.053 3.35 0.759 1.316 0.722 2.916-0.094 4.197s-2.288 2.053-3.859 2.019c-0.594 2.203-0.594 4.512 0 6.716 1.538 0.034 2.944 0.831 3.709 2.1 0.766 1.272 0.784 2.831 0.044 4.116 1.688 1.591 3.769 2.747 6.053 3.369 0.794-1.266 2.228-2.038 3.772-2.038s2.978 0.775 3.772 2.038c2.284-0.613 4.369-1.772 6.053-3.369-0.756-1.278-0.756-2.841 0-4.119 0.756-1.281 2.172-2.081 3.712-2.097 0.591-2.203 0.591-4.512-0.003-6.716zM20.103 19.816c-1.056 1.012-2.491 1.578-3.988 1.578-2.287 0.009-4.353-1.3-5.234-3.313-0.878-2.012-0.4-4.331 1.213-5.878 1.613-1.544 4.047-2.009 6.159-1.178s3.491 2.8 3.491 4.981c0.006 1.428-0.584 2.8-1.641 3.809z"></path>
</svg>
