<!-- Generated by IcoMoon.io -->
<svg version="1.1" xmlns="http://www.w3.org/2000/svg" width="32" height="32" viewBox="0 0 32 32">
<title>slack</title>
<path d="M27.504 14.902c1.372 0 2.428 1.005 2.428 2.378 0 1.071-0.553 1.825-1.557 2.176l-2.88 0.988 0.938 2.795c0.084 0.251 0.117 0.519 0.117 0.786 0 1.322-1.071 2.428-2.394 2.428-0.006 0-0.014 0-0.021 0-1.066 0-1.972-0.686-2.301-1.64l-0.005-0.017-0.92-2.762-5.19 1.774 0.92 2.745c0.084 0.251 0.134 0.519 0.134 0.786 0 1.306-1.071 2.428-2.411 2.428-0.006 0-0.013 0-0.020 0-1.062 0-1.964-0.687-2.285-1.641l-0.005-0.017-0.92-2.729-2.562 0.887c-0.268 0.084-0.553 0.151-0.837 0.151-1.356 0-2.377-1.005-2.377-2.36 0-1.038 0.67-1.976 1.657-2.31l2.612-0.887-1.758-5.24-2.612 0.904c-0.268 0.084-0.536 0.134-0.804 0.134-1.339 0-2.377-1.021-2.377-2.36 0-1.038 0.67-1.976 1.658-2.31l2.628-0.887-0.887-2.661c-0.083-0.234-0.131-0.504-0.134-0.785v-0.001c0-1.322 1.071-2.428 2.411-2.428 0.006-0 0.013-0 0.020-0 1.062 0 1.964 0.687 2.285 1.641l0.005 0.017 0.904 2.679 5.19-1.758-0.904-2.679c-0.083-0.234-0.131-0.504-0.134-0.785v-0.001c0-1.322 1.089-2.428 2.411-2.428 1.054 0 1.992 0.67 2.327 1.657l0.887 2.696 2.712-0.92c0.235-0.067 0.469-0.101 0.72-0.101 1.306 0 2.428 0.971 2.428 2.31 0 1.038-0.804 1.908-1.741 2.226l-2.628 0.904 1.758 5.29 2.745-0.938c0.229-0.081 0.493-0.13 0.768-0.134l0.002-0zM14.212 19.289l5.19-1.758-1.758-5.274-5.19 1.791z"></path>
</svg>
