<!-- Generated by IcoMoon.io -->
<svg version="1.1" xmlns="http://www.w3.org/2000/svg" width="32" height="32" viewBox="0 0 32 32">
<title>twitter</title>
<path d="M30.071 7.287q-1.195 1.751-2.894 2.983 0.018 0.249 0.018 0.75 0 2.322-0.679 4.633t-2.062 4.437-3.294 3.76-4.608 2.608-5.767 0.974q-4.839 0-8.857-2.59 0.624 0.071 1.392 0.071 4.018 0 7.161-2.464-1.874-0.037-3.358-1.152t-2.037-2.848q0.59 0.089 1.090 0.089 0.768 0 1.518-0.197-2-0.411-3.312-1.991t-1.312-3.669v-0.071q1.214 0.679 2.608 0.731-1.179-0.786-1.874-2.053t-0.697-2.75q0-1.573 0.786-2.91 2.16 2.661 5.259 4.258t6.633 1.776q-0.142-0.679-0.142-1.321 0-2.393 1.687-4.080t4.080-1.687q2.501 0 4.215 1.822 1.947-0.375 3.662-1.392-0.661 2.053-2.535 3.179 1.662-0.178 3.321-0.894z"></path>
</svg>
