<?xml version="1.0" encoding="utf-8"?>
<!-- Generator: Adobe Illustrator 21.0.0, SVG Export Plug-In . SVG Version: 6.00 Build 0)  -->
<svg version="1.1" id="图层_1" xmlns="http://www.w3.org/2000/svg" xmlns:xlink="http://www.w3.org/1999/xlink" x="0px" y="0px"
	 viewBox="0 0 114 24" style="enable-background:new 0 0 114 24;" xml:space="preserve">
<style type="text/css">
	.st0{fill:#E9E9E9;}
</style>
<title>logo copy</title>
<desc>Created with Sketch.</desc>
<g id="Page-1">
	<g id="fcoin" transform="translate(-360.000000, -4052.000000)">
		<g id="logo-copy" transform="translate(360.000000, 4052.000000)">
			<path id="Combined-Shape" class="st0" d="M64.3,6.5l-0.8,0.7c-1.3-1.3-3.2-2.2-5.3-2.2c-4,0-7.3,3.1-7.3,6.9s3.3,6.9,7.3,6.9
				c1.9,0,3.6-0.7,4.9-1.8l0.8,0.7c-1.5,1.3-3.5,2.1-5.7,2.1c-4.6,0-8.4-3.6-8.4-8s3.8-8,8.4-8C60.6,4,62.8,5,64.3,6.5z M100,4
				L100,4l12.9,14.2V4h1.1v16h-1.1L100,5.6V20h-1.1V4L100,4L100,4z M33.1,5.1h-1.7V4c1,0,2,0,3.2,0L44,4l0,1.1l-6.5,0L33.1,5.1
				L33.1,5.1z M32.5,11.5H44v1.1H32.4V20h-1.1v-8.5L32.5,11.5L32.5,11.5z M77.7,20c-4.7,0-8.4-3.6-8.4-8s3.8-8,8.4-8s8.4,3.6,8.4,8
				S82.3,20,77.7,20z M77.7,18.9c4,0,7.3-3.1,7.3-6.9s-3.3-6.9-7.3-6.9s-7.3,3.1-7.3,6.9S73.6,18.9,77.7,18.9z M91.9,4h1.1v16h-1.1
				V4z"/>
			<path id="Combined-Shape_1_" class="st0" d="M9.4,11c-1.1,0-2-0.9-2-2s0.9-2,2-2s2,0.9,2,2S10.5,11,9.4,11z M9.4,4.4
				c-1.1,0-2-0.9-2-2s0.9-2,2-2s2,0.9,2,2S10.5,4.4,9.4,4.4z M16.2,10.3c-0.7,0-1.3-0.6-1.3-1.3c0-0.7,0.6-1.3,1.3-1.3
				c0.7,0,1.3,0.6,1.3,1.3C17.5,9.7,17,10.3,16.2,10.3z M23.2,10c-0.5,0-0.9-0.4-0.9-0.9c0-0.5,0.4-0.9,0.9-0.9s0.9,0.4,0.9,0.9
				C24.1,9.6,23.7,10,23.2,10z M16.2,3.7c-0.7,0-1.3-0.6-1.3-1.3s0.6-1.3,1.3-1.3c0.7,0,1.3,0.6,1.3,1.3S17,3.7,16.2,3.7z M23.2,3.4
				c-0.5,0-0.9-0.4-0.9-0.9s0.4-0.9,0.9-0.9s0.9,0.4,0.9,0.9S23.7,3.4,23.2,3.4z M9.4,17c-0.7,0-1.3-0.6-1.3-1.3
				c0-0.7,0.6-1.3,1.3-1.3s1.3,0.6,1.3,1.3C10.7,16.4,10.1,17,9.4,17z M9.4,23.5c-0.5,0-0.8-0.4-0.8-0.8s0.4-0.8,0.8-0.8
				s0.8,0.4,0.8,0.8S9.9,23.5,9.4,23.5z M16.3,16.5c-0.5,0-0.8-0.4-0.8-0.8c0-0.5,0.4-0.8,0.8-0.8c0.5,0,0.8,0.4,0.8,0.8
				C17.1,16.2,16.8,16.5,16.3,16.5z M2.4,17.7c-1.1,0-2-0.9-2-2s0.9-2,2-2s2,0.9,2,2S3.6,17.7,2.4,17.7z M2.4,24
				c-0.7,0-1.3-0.6-1.3-1.3s0.6-1.3,1.3-1.3s1.3,0.6,1.3,1.3S3.2,24,2.4,24z M2.4,11.4C1.1,11.4,0,10.4,0,9s1.1-2.4,2.4-2.4
				S4.9,7.7,4.9,9S3.8,11.4,2.4,11.4z M2.4,4.8C1.1,4.8,0,3.7,0,2.4S1.1,0,2.4,0s2.4,1.1,2.4,2.4S3.8,4.8,2.4,4.8z"/>
		</g>
	</g>
</g>
</svg>
