<?xml version="1.0" encoding="utf-8"?>
<!-- Generator: Adobe Illustrator 21.0.0, SVG Export Plug-In . SVG Version: 6.00 Build 0)  -->
<svg version="1.1" id="图层_1" xmlns="http://www.w3.org/2000/svg" xmlns:xlink="http://www.w3.org/1999/xlink" x="0px" y="0px"
	 viewBox="0 0 16 16" style="enable-background:new 0 0 16 16;" xml:space="preserve">
<style type="text/css">
	.st0{fill:none;}
	.st1{fill:#4F585D;}
	.st2{fill:#737C80;}
</style>
<title>手机</title>
<desc>Created with Sketch.</desc>
<g id="Page-1">
	<g id="fcoin" transform="translate(-1710.000000, -15.000000)">
		<g id="手机" transform="translate(1706.000000, 13.000000)">
			<rect id="Rectangle-7" x="4" y="2" class="st0" width="16" height="16"/>
			<rect id="Rectangle-2" x="8.9" y="4.8" class="st1" width="6.3" height="8.4"/>
			<path id="Shape" class="st2" d="M15.1,4H8.9C8.4,4,8,4.4,8,4.9v10.3C8,15.6,8.4,16,8.9,16h6.2c0.5,0,0.9-0.4,0.9-0.9V4.9
				C16,4.4,15.6,4,15.1,4z M12,15.3c-0.5,0-0.9-0.4-0.9-0.9c0-0.5,0.4-0.9,0.9-0.9c0.5,0,0.9,0.4,0.9,0.9
				C12.9,14.9,12.5,15.3,12,15.3z M15,13H9V5h6V13z"/>
		</g>
	</g>
</g>
</svg>
