<svg id="图层_1" data-name="图层 1" xmlns="http://www.w3.org/2000/svg" viewBox="0 0 20 20"><defs><style>.cls-1{fill:#2f3d45;}</style></defs><title>github</title><g id="Page-1"><g id="首页hover态"><g id="github"><path id="Shape" class="cls-1" d="M9.24,20a1.84,1.84,0,0,1-1.85-1.82v-1.3C3.74,17.66,3,15.35,3,15.35a3.44,3.44,0,0,0-1.45-1.9c-1.19-.81.09-.79.09-.79a2.74,2.74,0,0,1,2,1.34,2.8,2.8,0,0,0,3.81,1.08,2.75,2.75,0,0,1,.83-1.73c-2.9-.33-6-1.44-6-6.4A5,5,0,0,1,3.64,3.46,4.62,4.62,0,0,1,3.77,0s1.1-.35,3.6,1.33a12.51,12.51,0,0,1,6.55,0C16.41-.31,17.51,0,17.51,0a4.61,4.61,0,0,1,.13,3.43A5,5,0,0,1,19,6.94c0,5-3.06,6.07-6,6.39a3.08,3.08,0,0,1,.89,2.4c0,1.73,0,2.44,0,2.44A1.84,1.84,0,0,1,12,20H9.24Z"/></g></g></g></svg>