<?xml version="1.0" encoding="utf-8"?>
<!-- Generator: Adobe Illustrator 21.0.0, SVG Export Plug-In . SVG Version: 6.00 Build 0)  -->
<svg version="1.1" id="图层_1" xmlns="http://www.w3.org/2000/svg" xmlns:xlink="http://www.w3.org/1999/xlink" x="0px" y="0px"
	 viewBox="0 0 12 12" style="enable-background:new 0 0 12 12;" xml:space="preserve">
<style type="text/css">
	.st0{fill:#4F585D;}
	.st1{fill:#737C80;}
	.st2{fill:none;}
</style>
<title>Language</title>
<desc>Created with Sketch.</desc>
<g id="Page-1">
	<g id="fcoin" transform="translate(-1820.000000, -14.000000)">
		<g id="Group" transform="translate(1818.000000, 11.000000)">
			<g id="Language" transform="translate(0.000000, 1.000000)">
				<g>
					<path id="Shape" class="st0" d="M10.1,5.7C9.8,3.5,9,2,8,2S6.2,3.5,5.9,5.7H10.1z M5.7,8c0,0.5,0,1.1,0.1,1.5h4.5
						c0.1-0.5,0.1-1,0.1-1.5s0-1.1-0.1-1.5H5.8C5.7,6.9,5.7,7.5,5.7,8z M13.5,5.7C12.8,4,11.4,2.8,9.7,2.3c0.6,0.8,1,2,1.2,3.4H13.5
						z M6.3,2.3C4.6,2.8,3.2,4,2.5,5.7h2.6C5.3,4.3,5.7,3.1,6.3,2.3z M13.8,6.5H11c0.1,0.5,0.1,1,0.1,1.5s0,1-0.1,1.5h2.8
						C13.9,9.1,14,8.5,14,8S13.9,6.9,13.8,6.5z M4.9,8c0-0.5,0-1,0.1-1.5H2.2C2.1,6.9,2,7.5,2,8s0.1,1.1,0.2,1.5H5
						C4.9,9,4.9,8.5,4.9,8z M5.9,10.3C6.2,12.5,7,14,8,14s1.8-1.5,2.1-3.7H5.9z M9.7,13.7c1.7-0.5,3.1-1.8,3.8-3.4h-2.6
						C10.7,11.7,10.3,12.9,9.7,13.7z M2.5,10.3c0.7,1.6,2.1,2.9,3.8,3.4c-0.6-0.8-1-2-1.2-3.4H2.5z"/>
					<path id="Shape_1_" class="st1" d="M10.1,5.7C9.8,3.5,9,2,8,2S6.2,3.5,5.9,5.7H10.1z M5.7,8c0,0.5,0,1.1,0.1,1.5h4.5
						c0.1-0.5,0.1-1,0.1-1.5s0-1.1-0.1-1.5H5.8C5.7,6.9,5.7,7.5,5.7,8z M13.5,5.7C12.8,4,11.4,2.8,9.7,2.3c0.6,0.8,1,2,1.2,3.4H13.5
						z M6.3,2.3C4.6,2.8,3.2,4,2.5,5.7h2.6C5.3,4.3,5.7,3.1,6.3,2.3z M4.9,8c0-0.5,0-1,0.1-1.5H2.2C2.1,6.9,2,7.5,2,8
						s0.1,1.1,0.2,1.5H5C4.9,9,4.9,8.5,4.9,8z M5.9,10.3C6.2,12.5,7,14,8,14s1.8-1.5,2.1-3.7H5.9z M2.5,10.3
						c0.7,1.6,2.1,2.9,3.8,3.4c-0.6-0.8-1-2-1.2-3.4H2.5z"/>
					<rect id="Rectangle-5" class="st2" width="16" height="16"/>
				</g>
			</g>
		</g>
	</g>
</g>
</svg>
