<?xml version="1.0" encoding="utf-8"?>
<!-- Generator: Adobe Illustrator 21.0.0, SVG Export Plug-In . SVG Version: 6.00 Build 0)  -->
<svg version="1.1" id="图层_1" xmlns="http://www.w3.org/2000/svg" xmlns:xlink="http://www.w3.org/1999/xlink" x="0px" y="0px"
	 viewBox="0 0 133 28" style="enable-background:new 0 0 133 28;" xml:space="preserve">
<style type="text/css">
	.st0{fill:#E9E9E9;}
	.st1{fill:#00B07C;}
</style>
<title>logo</title>
<desc>Created with Sketch.</desc>
<g id="Page-1">
	<g id="fcoin" transform="translate(-40.000000, -57.000000)">
		<g id="logo" transform="translate(40.000000, 57.000000)">
			<path id="Combined-Shape" class="st0" d="M75,7.6l-0.9,0.9c-1.6-1.6-3.7-2.5-6.2-2.5c-4.7,0-8.5,3.6-8.5,8.1s3.8,8.1,8.5,8.1
				c2.2,0,4.2-0.8,5.7-2.1l0.9,0.9c-1.8,1.5-4.1,2.5-6.7,2.5c-5.4,0-9.8-4.2-9.8-9.3s4.4-9.3,9.8-9.3C70.7,4.7,73.2,5.8,75,7.6z
				 M116.7,4.7L116.7,4.7l15,16.6V4.7h1.3v18.7h-1.3l-15-16.8v16.8h-1.3V4.7L116.7,4.7L116.7,4.7z M38.6,5.9h-2V4.7
				c1.1,0,2.4,0,3.7,0l11.1,0l0,1.2l-7.6,0L38.6,5.9L38.6,5.9z M37.9,13.4h13.4v1.2H37.8v8.6h-1.3v-9.9L37.9,13.4L37.9,13.4z
				 M90.6,23.3c-5.4,0-9.8-4.2-9.8-9.3s4.4-9.3,9.8-9.3s9.8,4.2,9.8,9.3S96.1,23.3,90.6,23.3z M90.6,22.1c4.7,0,8.5-3.6,8.5-8.1
				s-3.8-8.1-8.5-8.1s-8.5,3.6-8.5,8.1S85.9,22.1,90.6,22.1z M107.2,4.7h1.3v18.7h-1.3V4.7z"/>
			<path id="Combined-Shape_1_" class="st1" d="M11,12.9c-1.3,0-2.4-1-2.4-2.3S9.7,8.2,11,8.2s2.4,1,2.4,2.3S12.3,12.9,11,12.9z
				 M11,5.1c-1.3,0-2.4-1-2.4-2.3S9.7,0.5,11,0.5s2.4,1,2.4,2.3S12.3,5.1,11,5.1z M19,12c-0.8,0-1.5-0.7-1.5-1.5s0.7-1.5,1.5-1.5
				c0.8,0,1.5,0.7,1.5,1.5S19.8,12,19,12z M27,11.7c-0.6,0-1.1-0.5-1.1-1.1c0-0.6,0.5-1.1,1.1-1.1c0.6,0,1.1,0.5,1.1,1.1
				C28.1,11.2,27.6,11.7,27,11.7z M19,4.3c-0.8,0-1.5-0.7-1.5-1.5s0.7-1.5,1.5-1.5c0.8,0,1.5,0.7,1.5,1.5S19.8,4.3,19,4.3z M27,3.9
				c-0.6,0-1.1-0.5-1.1-1.1s0.5-1.1,1.1-1.1c0.6,0,1.1,0.5,1.1,1.1S27.6,3.9,27,3.9z M11,19.8c-0.8,0-1.5-0.7-1.5-1.5
				s0.7-1.5,1.5-1.5c0.8,0,1.5,0.7,1.5,1.5S11.8,19.8,11,19.8z M11,27.4c-0.5,0-1-0.4-1-1c0-0.5,0.4-1,1-1s1,0.4,1,1
				C12,27,11.6,27.4,11,27.4z M19,19.3c-0.5,0-1-0.4-1-1s0.4-1,1-1s1,0.4,1,1S19.6,19.3,19,19.3z M2.8,20.6c-1.3,0-2.4-1-2.4-2.3
				S1.5,16,2.8,16s2.4,1,2.4,2.3S4.2,20.6,2.8,20.6z M2.8,28c-0.8,0-1.5-0.7-1.5-1.5C1.3,25.7,2,25,2.8,25s1.5,0.7,1.5,1.5
				C4.4,27.3,3.7,28,2.8,28z M2.8,13.3c-1.6,0-2.8-1.3-2.8-2.8s1.3-2.8,2.8-2.8S5.7,9,5.7,10.5S4.4,13.3,2.8,13.3z M2.8,5.6
				C1.3,5.6,0,4.3,0,2.8S1.3,0,2.8,0s2.8,1.3,2.8,2.8S4.4,5.6,2.8,5.6z"/>
		</g>
	</g>
</g>
</svg>
