<svg id="图层_1" data-name="图层 1" xmlns="http://www.w3.org/2000/svg" viewBox="0 0 20 20"><defs><style>.cls-1{fill:#2f3d45;}</style></defs><title>medium</title><g id="Page-1"><g id="首页hover态"><g id="medium"><path id="Shape" class="cls-1" d="M14.79,15.5l-.35.56,1,.5,3.43,1.72a1.17,1.17,0,0,0,.52.14.56.56,0,0,0,.58-.62V7L14.8,15.5ZM19.92,4.62s0,0,0,0l-6-3a.64.64,0,0,0-.23-.06h-.06a.69.69,0,0,0-.58.32l-.3.49-.63,1L9.71,7.21l2.36,3.86.63,1,.63,1,.74,1.19L20,4.71a.07.07,0,0,0,0-.1Zm-7.85,8.84L9,8.4,8.6,7.8l-.37-.6-.31-.52v6.11l4.15,2.09.63.31.63.31-.63-1-.63-1ZM.92,1.77.74,1.67a.68.68,0,0,0-.3-.08c-.26,0-.44.2-.44.54V14.89a1.11,1.11,0,0,0,.55.9l5.19,2.61a.75.75,0,0,0,.38.1c.32,0,.55-.25.55-.67V4.69a.06.06,0,0,0,0-.06L.92,1.77Z"/></g></g></g></svg>