<svg id="图层_1" data-name="图层 1" xmlns="http://www.w3.org/2000/svg" viewBox="0 0 20 20"><defs><style>.cls-1{fill:#2f3d45;}</style></defs><title>reddit</title><g id="Page-1"><g id="首页hover态"><g id="reddit"><path id="Shape" class="cls-1" d="M20,9.44a2.53,2.53,0,0,0-2.5-2.62,2.21,2.21,0,0,0-1.6.63,11.05,11.05,0,0,0-5.4-1.67L11.6,1.6l3.4,1a2.14,2.14,0,0,0,.59,1.48,1.94,1.94,0,0,0,2.83,0A2.14,2.14,0,0,0,19,2.64,2,2,0,0,0,17,.55a1.92,1.92,0,0,0-1.7,1l-4-1c-.3-.1-.5.1-.6.42L9.5,5.78A11.4,11.4,0,0,0,4.1,7.45a2.21,2.21,0,0,0-1.6-.63A2.53,2.53,0,0,0,0,9.44a2.63,2.63,0,0,0,1.1,2.2l-.1.94c0,3.77,4,6.8,9,6.8s9-3,9-6.8l-.1-.94A2.63,2.63,0,0,0,20,9.44ZM7,9.76a1.26,1.26,0,0,1,0,2.51A1.18,1.18,0,0,1,5.8,11,1.18,1.18,0,0,1,7,9.76ZM13.8,15.4a8.78,8.78,0,0,1-7.59,0,.53.53,0,0,1-.1-.73c.2-.21.5-.31.7-.1,1.2.94,5.2.94,6.4,0,.2-.21.5-.1.7.1A.53.53,0,0,1,13.8,15.4ZM13,12.27A1.26,1.26,0,1,1,14.2,11,1.18,1.18,0,0,1,13,12.27Z"/></g></g></g></svg>