<svg id="图层_1" data-name="图层 1" xmlns="http://www.w3.org/2000/svg" viewBox="0 0 20 20"><defs><style>.cls-1{fill:#2f3d45;}</style></defs><title>slack</title><g id="Page-1"><g id="首页hover态"><g id="slack"><path id="Shape" class="cls-1" d="M18.25,9.33a1.71,1.71,0,0,1,1.24.49A1.64,1.64,0,0,1,20,11a1.53,1.53,0,0,1-1.12,1.56l-2.07.71.67,2a1.79,1.79,0,0,1,.08.56,1.7,1.7,0,0,1-.5,1.23,1.63,1.63,0,0,1-1.21.52,1.75,1.75,0,0,1-1-.32,1.68,1.68,0,0,1-.64-.87l-.66-2L9.8,15.72l.66,2a1.78,1.78,0,0,1,.1.56,1.7,1.7,0,0,1-.5,1.23A1.65,1.65,0,0,1,8.82,20a1.72,1.72,0,0,1-1-.32,1.69,1.69,0,0,1-.64-.87l-.66-2-1.84.64a2.07,2.07,0,0,1-.6.11,1.66,1.66,0,0,1-1.22-.48,1.64,1.64,0,0,1-.49-1.21,1.7,1.7,0,0,1,.33-1,1.72,1.72,0,0,1,.86-.64l1.87-.64L4.17,9.84l-1.87.65a2,2,0,0,1-.58.1A1.66,1.66,0,0,1,.5,10.1,1.63,1.63,0,0,1,0,8.89a1.7,1.7,0,0,1,.33-1,1.72,1.72,0,0,1,.86-.64L3.08,6.6,2.45,4.69a1.78,1.78,0,0,1-.1-.56,1.69,1.69,0,0,1,.5-1.23,1.66,1.66,0,0,1,1.22-.51,1.72,1.72,0,0,1,1,.32,1.69,1.69,0,0,1,.64.87l.65,1.92,3.72-1.26L9.46,2.31a1.78,1.78,0,0,1-.1-.56A1.69,1.69,0,0,1,9.87.52,1.65,1.65,0,0,1,11.09,0a1.77,1.77,0,0,1,1.67,1.19l.64,1.94,1.94-.66a1.86,1.86,0,0,1,.52-.07,1.74,1.74,0,0,1,1.23.47,1.55,1.55,0,0,1,.51,1.18,1.5,1.5,0,0,1-.36,1,2,2,0,0,1-.89.62l-1.88.65,1.26,3.8,2-.67a1.74,1.74,0,0,1,.55-.1ZM8.72,12.47l3.72-1.26L11.18,7.43,7.46,8.71Z"/></g></g></g></svg>