<svg id="图层_1" data-name="图层 1" xmlns="http://www.w3.org/2000/svg" viewBox="0 0 20 20"><defs><style>.cls-1{fill:#2f3d45;}</style></defs><title>Twitter</title><g id="Page-1"><g id="首页hover态"><g id="推特"><path id="Shape" class="cls-1" d="M20,4a14.88,14.88,0,0,1-2.3.67,5,5,0,0,0,1.87-2.28A10.06,10.06,0,0,1,17,3.35,4.14,4.14,0,0,0,9.78,6,2.15,2.15,0,0,0,9.93,7a11.26,11.26,0,0,1-8.48-4.3,4.73,4.73,0,0,0-.57,2A3.82,3.82,0,0,0,2.6,8c-.72,0-2-.27-2-.54a4.26,4.26,0,0,0,3.45,4,2.6,2.6,0,0,1-1,.13,1.38,1.38,0,0,1-.72-.13,4.1,4.1,0,0,0,3.88,2.82A8.5,8.5,0,0,1,1,16.1H0A11.56,11.56,0,0,0,6.33,18,11.57,11.57,0,0,0,18.12,6.44V5.9A6.18,6.18,0,0,0,20,4Z"/></g></g></g></svg>