<svg id="图层_1" data-name="图层 1" xmlns="http://www.w3.org/2000/svg" viewBox="0 0 24 24"><defs><style>.cls-1{fill:none;}.cls-2{fill:#00b07c;}</style></defs><title>去交易</title><g id="去交易"><g id="Group-5-Copy-3"><polygon id="Stroke-16" class="cls-1" points="0 24 24 24 24 0 0 0 0 24"/><path id="Oval-6" class="cls-2" d="M12,18.4A6.4,6.4,0,1,0,5.6,12,6.4,6.4,0,0,0,12,18.4ZM12,20a8,8,0,1,1,8-8A8,8,0,0,1,12,20Z"/><path id="Shape" class="cls-2" d="M5.88,14.82,5.72,15a.81.81,0,0,0,0,1.11.8.8,0,0,0,1.12.1A2.64,2.64,0,0,0,7.08,16l5.77-5.77L13,10a.79.79,0,0,0,.17-.9.83.83,0,0,0-.79-.52L8.55,8.55a.81.81,0,0,0-.88.8.84.84,0,0,0,.87.85l1.16,0h.76l-.23.23Z"/><path id="Shape-Copy-2" class="cls-2" d="M18.62,9.18,18.78,9a.81.81,0,0,0,0-1.11.8.8,0,0,0-1.12-.1,2.64,2.64,0,0,0-.23.21l-5.77,5.77-.16.16a.79.79,0,0,0-.17.9.83.83,0,0,0,.79.52l3.83.08a.81.81,0,0,0,.88-.8.84.84,0,0,0-.87-.85l-1.16,0H14l.23-.23Z"/></g></g></svg>