<svg id="图层_1" data-name="图层 1" xmlns="http://www.w3.org/2000/svg" viewBox="0 0 1920 128"><defs><style>.cls-1,.cls-2{fill:none;}.cls-1{stroke:#00b07c;stroke-width:2px;}</style></defs><title>画板 1</title><g id="Page-1"><g id="Group-13"><path id="Stroke-1" class="cls-1" d="M1959,2h-1l-.51,0c-29.75.26-56,8.1-79.82,26.77-20.18,15.82-33.9,36.73-51.15,55.35-13.89,15-30.73,27.55-50,34.61-26,9.52-58.19,10.09-85.3,5.17-17.79-3.23-33.76-10.71-48.41-21.24-21-15.07-34.51-37.3-51.84-55.93-15.94-17.14-35.2-31.12-57.34-38.9-13.59-4.77-28.12-5.79-42.42-5.84H1490l-.51,0c-29.75.26-56,8.1-79.82,26.77-20.19,15.82-33.91,36.72-51.14,55.35-13.86,15-30.66,27.54-49.9,34.59-25.75,9.44-57.71,10.17-84.55,5.2-17.51-3.24-33.15-10.79-47.5-21.24-20.79-15.15-34.29-37.36-51.57-55.94-15.93-17.14-35.2-31.12-57.33-38.9-13.59-4.77-28.12-5.79-42.42-5.84H1024l-.51,0c-29.75.26-56,8.1-79.82,26.77-20.1,15.76-33.78,36.56-50.94,55.11-13.8,14.92-30.53,27.4-49.66,34.48-26.11,9.67-58.49,10.54-85.8,5.86-17.22-3-32.66-10-46.89-20.08C689.53,89.4,675.91,67.62,659,48.94,643,31.25,623.69,16.76,601.3,8.43,587.2,3.19,572,2.06,557.11,2H556"/><path id="Stroke-1-2" data-name="Stroke-1" class="cls-1" d="M560,2h-1l-.51,0c-29.75.26-56,8.1-79.82,26.77-20.18,15.82-33.9,36.73-51.15,55.35-13.89,15-30.73,27.55-50,34.61-26,9.52-58.19,10.09-85.3,5.17-17.79-3.23-33.76-10.71-48.41-21.24-21-15.07-34.51-37.3-51.84-55.93C176,29.61,156.77,15.63,134.64,7.85,121.05,3.08,106.51,2.07,92.22,2H91l-.51,0c-29.75.26-56,8.1-79.82,26.77C-9.53,44.61-23.25,65.51-40.48,84.14c-13.86,15-30.66,27.54-49.9,34.59-25.75,9.44-57.71,10.17-84.55,5.2-17.51-3.24-33.15-10.79-47.5-21.24C-243.21,87.54-256.72,65.33-274,46.75c-15.93-17.14-35.2-31.12-57.33-38.9C-344.92,3.08-359.46,2.07-373.75,2H-375l-.51,0c-29.75.26-56,8.1-79.82,26.77-20.1,15.76-33.78,36.56-50.94,55.11-13.8,14.92-30.53,27.4-49.66,34.48-26.11,9.67-58.49,10.54-85.8,5.86-17.22-3-32.66-10-46.89-20.08C-709.47,89.4-723.09,67.62-740,48.94c-16-17.69-35.33-32.18-57.73-40.51C-811.8,3.19-827,2.06-841.89,2H-843"/></g><rect id="Rectangle-8" class="cls-2" x="-10" width="1920" height="128"/></g></svg>